<?xml version="1.0" encoding="UTF-8" standalone="no"?>
<svg
   data-name="Layer 1"
   viewBox="0 0 1200 120"
   preserveAspectRatio="none"
   version="1.1"
   id="svg42"
   sodipodi:docname="wave2.svg"
   inkscape:version="1.1.1 (c3084ef, 2021-09-22)"
   xmlns:inkscape="http://www.inkscape.org/namespaces/inkscape"
   xmlns:sodipodi="http://sodipodi.sourceforge.net/DTD/sodipodi-0.dtd"
   xmlns="http://www.w3.org/2000/svg"
   xmlns:svg="http://www.w3.org/2000/svg">
  <defs
     id="defs46" />
  <sodipodi:namedview
     id="namedview44"
     pagecolor="#ffffff"
     bordercolor="#666666"
     borderopacity="1.0"
     inkscape:pageshadow="2"
     inkscape:pageopacity="0.0"
     inkscape:pagecheckerboard="0"
     showgrid="false"
     inkscape:zoom="0.93916667"
     inkscape:cx="600"
     inkscape:cy="60.159716"
     inkscape:window-width="1296"
     inkscape:window-height="769"
     inkscape:window-x="0"
     inkscape:window-y="25"
     inkscape:window-maximized="0"
     inkscape:current-layer="svg42" />
  <path
     d="M 0,109.98921 V 63.699212 c 47.79,-22.2 103.59,-32.17 158,-28 70.36,5.37 136.33,33.31 206.8,37.5 73.84,4.36 147.54,-16.88 218.2,-35.26 69.27,-18 138.3,-24.88 209.4,-13.08 36.15,6 69.85,17.84 104.45,29.34 92.64,30.79 216.15,70.079998 303.15,3.32 v 52.469998 z"
     opacity="0.25"
     class="shape-fill"
     fill="#ffffff"
     fill-opacity="1"
     id="path36" />
  <path
     d="M 0,109.98921 V 94.179212 c 13,-21.11 27.64,-41.05 47.69,-56.24 51.72,-39.2199997 117.31,-38.9499997 176.89,-19.53 31.15,10.15 60.09,26.07 89.67,39.8 40.92,19 84.73,45.999998 130.83,49.669998 36.26,2.85 70.9,-9.419998 98.6,-31.559998 31.77,-25.39 62.32,-62 103.63,-72.9999997 40.44,-10.79 81.35,6.6899997 119.13,24.2799997 37.78,17.59 75.16,39 116.92,43.05 59.73,5.85 113.28,-22.88 168.9,-38.84 30.2,-8.66 59,-6.17 87.09,7.5 22.43,10.89 48,26.93 60.65,49.24 v 21.439998 z"
     opacity="0.5"
     class="shape-fill"
     fill="#ffffff"
     fill-opacity="1"
     id="path38" />
  <path
     d="m 0,109.98921 v -5.63 C 149.93,50.989212 314.09,38.669212 475.83,67.419212 c 43,7.64 84.23,20.12 127.61,26.46 59,8.629998 112.48,-12.24 165.56,-35.4 58.93,-25.71 117,-43.73 182.2,-38.49 86.53,7 172.46,45.71 248.8,84.809998 v 5.19 z"
     class="shape-fill"
     fill="#ffffff"
     fill-opacity="1"
     id="path40" />
</svg>
